<?xml version="1.0" standalone="no"?>
<!DOCTYPE svg PUBLIC "-//W3C//DTD SVG 20010904//EN"
 "http://www.w3.org/TR/2001/REC-SVG-20010904/DTD/svg10.dtd">
<svg version="1.0" xmlns="http://www.w3.org/2000/svg"
 width="320.000000pt" height="320.000000pt" viewBox="0 0 320.000000 320.000000"
 preserveAspectRatio="xMidYMid meet">
<metadata>
Created by potrace 1.14, written by Peter Selinger 2001-2017
</metadata>
<g transform="translate(0.000000,320.000000) scale(0.100000,-0.100000)"
fill="#000000" stroke="none">
<path d="M1230 2919 c0 -17 -4 -28 -8 -25 -5 3 -9 -1 -9 -9 0 -8 4 -12 9 -9
13 8 10 -10 -4 -25 -10 -11 -10 -13 0 -7 7 5 12 1 12 -9 0 -9 -4 -13 -10 -10
-5 3 -10 1 -10 -4 0 -6 4 -11 8 -11 11 0 9 -110 -1 -127 -5 -7 -4 -13 0 -13 5
0 10 -11 11 -26 1 -14 -2 -23 -8 -19 -6 3 -10 1 -10 -4 0 -6 3 -11 8 -11 4 0
7 -45 8 -100 1 -89 -1 -98 -15 -87 -12 8 -11 6 2 -9 19 -23 23 -39 7 -29 -5 3
-10 1 -10 -4 0 -6 4 -11 8 -11 11 0 9 -91 -2 -109 -6 -9 -5 -12 0 -8 12 7 12
-33 1 -50 -5 -7 -4 -13 0 -13 5 0 10 -11 11 -26 1 -14 -2 -23 -8 -19 -6 3 -10
1 -10 -4 0 -6 3 -11 8 -11 4 0 7 -45 8 -100 1 -89 -1 -98 -15 -87 -12 8 -11 6
2 -9 19 -23 23 -39 7 -29 -5 3 -10 1 -10 -4 0 -6 4 -11 8 -11 11 0 9 -91 -2
-109 -6 -9 -5 -12 0 -8 12 7 12 -33 1 -50 -5 -7 -4 -13 0 -13 5 0 10 -11 11
-26 1 -14 -2 -23 -8 -19 -6 3 -10 1 -10 -4 0 -6 3 -11 8 -11 4 0 7 -45 8 -100
1 -89 -1 -98 -15 -87 -12 8 -11 6 2 -9 19 -23 23 -39 7 -29 -5 3 -10 1 -10 -4
0 -6 4 -11 8 -11 11 0 9 -91 -2 -109 -6 -9 -5 -12 0 -8 12 7 12 -33 1 -50 -5
-7 -4 -13 0 -13 5 0 10 -11 11 -26 1 -14 -2 -23 -8 -19 -6 3 -10 1 -10 -4 0
-6 3 -11 8 -11 4 0 7 -45 8 -100 1 -89 -1 -98 -15 -87 -12 8 -11 6 2 -9 19
-23 23 -39 7 -29 -5 3 -10 1 -10 -4 0 -6 4 -11 8 -11 11 0 9 -91 -2 -109 -6
-9 -5 -12 0 -8 12 7 12 -33 1 -50 -5 -7 -4 -13 0 -13 5 0 10 -11 11 -26 1 -14
-2 -23 -8 -19 -6 3 -10 1 -10 -4 0 -6 4 -11 8 -11 4 0 8 -25 8 -55 0 -30 -3
-52 -8 -49 -4 3 -8 0 -8 -5 0 -6 6 -11 13 -11 8 0 7 -4 -3 -10 -8 -5 -10 -10
-5 -10 6 0 12 -11 13 -26 1 -14 -2 -23 -8 -19 -6 3 -10 1 -10 -4 0 -6 5 -11
10 -11 6 0 10 -10 10 -22 0 -21 0 -21 -27 3 -15 13 -22 17 -15 8 6 -9 10 -19
7 -22 -3 -4 -2 -5 2 -2 8 6 33 -14 33 -27 0 -5 -4 -6 -10 -3 -5 3 -10 1 -10
-4 0 -6 6 -11 13 -11 8 0 7 -4 -3 -10 -8 -5 -10 -10 -5 -10 6 0 12 -11 13 -26
1 -14 -2 -23 -8 -19 -6 3 -10 1 -10 -4 0 -6 4 -11 9 -11 5 0 9 -15 8 -34 0
-19 -5 -33 -9 -30 -4 3 -8 0 -8 -5 0 -6 6 -11 13 -11 8 0 7 -4 -3 -10 -8 -5
-10 -10 -5 -10 6 0 12 -11 13 -26 1 -14 -2 -23 -8 -19 -6 3 -10 1 -10 -4 0 -6
5 -11 10 -11 6 0 10 -10 10 -22 0 -21 0 -21 -27 3 -15 13 -22 17 -15 8 6 -9 8
-20 4 -25 -4 -5 -3 -6 2 -2 5 4 15 3 23 -3 15 -13 18 -33 3 -24 -5 3 -10 1
-10 -4 0 -6 6 -11 13 -11 8 0 7 -4 -3 -10 -8 -5 -10 -10 -5 -10 6 0 12 -11 13
-26 1 -14 -2 -23 -8 -19 -6 3 -10 2 -10 -3 0 -19 37 -23 242 -22 199 1 208 2
198 20 -6 10 -10 27 -10 37 0 15 2 16 10 3 6 -9 10 -10 10 -3 0 6 -5 15 -11
18 -6 5 -4 12 8 22 13 10 14 13 3 10 -13 -4 -15 15 -15 134 0 76 4 141 8 145
4 4 7 12 7 18 0 6 -5 4 -10 -4 -7 -11 -8 -9 -6 11 1 13 6 31 11 38 5 10 4 12
-3 7 -7 -4 -12 -1 -12 9 0 9 4 14 9 10 5 -3 13 -1 16 5 4 6 1 9 -6 8 -16 -4
-21 240 -5 261 8 11 8 13 0 8 -7 -4 -11 6 -12 28 -1 22 3 35 11 35 8 0 7 4 -3
10 -13 8 -12 11 5 25 13 11 15 15 4 12 -12 -4 -15 4 -14 42 0 25 5 53 10 60 5
10 4 12 -3 7 -16 -10 -15 7 1 23 10 11 10 13 0 7 -7 -4 -13 -3 -13 1 0 5 6 15
13 22 6 8 7 11 1 8 -8 -5 -11 8 -10 37 0 25 4 42 8 40 5 -3 8 0 8 5 0 6 -4 11
-9 11 -4 0 -8 18 -8 41 0 29 3 37 9 27 7 -9 8 -7 3 7 -12 33 -13 125 -2 118 6
-3 6 1 -1 13 -8 14 -6 21 5 30 13 9 13 13 3 19 -9 5 -11 4 -6 -3 4 -7 2 -12
-3 -12 -15 0 -14 23 2 39 10 11 10 13 0 7 -8 -5 -13 -1 -13 9 0 9 4 14 9 10 5
-3 13 -1 16 5 4 6 1 9 -6 8 -16 -4 -21 240 -5 261 8 11 8 13 -1 7 -7 -4 -13
-2 -13 3 0 6 5 11 10 11 6 0 10 5 10 11 0 5 -4 8 -9 4 -6 -3 -9 12 -8 34 1 21
6 37 10 34 4 -3 13 -1 20 4 19 14 52 9 52 -7 1 -8 -4 -18 -10 -22 -6 -5 -6 -8
2 -8 6 0 15 5 18 10 4 6 10 8 15 5 5 -3 11 -1 15 4 3 6 -3 8 -14 6 -14 -3 -18
1 -14 12 4 10 8 11 13 3 10 -16 15 -17 33 -2 10 9 17 10 22 2 3 -5 16 -10 27
-10 12 0 18 -3 14 -7 -4 -5 -13 -8 -19 -8 -5 0 -11 -6 -13 -13 -1 -7 0 -8 3
-2 3 7 10 7 21 -2 10 -8 13 -9 9 -1 -4 6 -3 14 2 18 6 3 8 12 4 20 -4 11 -1
13 11 9 9 -3 14 -9 12 -13 -3 -4 0 -13 6 -21 8 -12 9 -12 4 3 -3 9 -1 17 5 17
6 0 7 5 3 12 -4 6 -3 8 4 4 6 -3 9 -19 7 -34 -2 -15 -2 -21 1 -14 5 9 9 10 19
2 10 -9 16 -7 24 8 7 14 7 19 -4 19 -8 0 -11 -7 -7 -16 5 -14 4 -14 -12 -1
-11 8 -14 16 -7 18 6 2 8 9 5 14 -5 7 -2 8 7 3 20 -13 49 -13 49 -1 0 7 3 7 8
1 9 -13 62 -15 62 -3 0 5 9 4 19 -2 26 -13 34 -13 25 3 -6 9 -5 9 8 0 8 -7 18
-10 22 -5 13 12 93 9 93 -5 0 -7 -4 -10 -9 -7 -4 3 -5 -3 -1 -12 6 -16 8 -15
16 4 6 12 14 22 19 22 5 0 6 -6 2 -12 -4 -7 2 -5 13 5 14 12 23 15 28 8 3 -6
16 -11 27 -11 12 0 18 -3 14 -7 -4 -5 -13 -8 -18 -8 -6 0 -12 -6 -14 -13 -1
-7 0 -8 3 -2 3 7 10 7 21 -2 10 -8 13 -9 9 -1 -4 6 -3 14 2 18 6 3 7 13 4 21
-5 14 -3 15 14 6 11 -6 23 -8 27 -5 13 13 47 10 42 -3 -3 -7 -1 -16 5 -19 5
-4 8 -1 7 6 -2 7 7 18 19 24 13 5 23 13 23 18 0 4 -4 5 -10 2 -14 -9 -12 8 3
24 10 11 10 13 0 7 -7 -4 -13 -2 -13 3 0 6 5 11 10 11 6 0 10 5 10 11 0 5 -4
7 -10 4 -5 -3 -10 1 -10 9 0 9 5 16 10 16 6 0 10 5 10 11 0 5 -4 7 -10 4 -5
-3 -10 -2 -10 4 0 5 6 12 13 14 9 4 8 6 -2 6 -11 1 -11 4 0 18 10 11 10 14 2
9 -8 -4 -13 -1 -13 9 0 9 5 13 10 10 6 -3 10 -1 10 4 0 6 -4 11 -8 11 -5 0 -8
14 -8 30 0 17 3 30 8 30 4 0 8 5 8 11 0 5 -4 7 -10 4 -5 -3 -10 -2 -10 4 0 5
6 12 13 14 9 4 8 6 -2 6 -11 1 -11 4 0 18 10 11 10 14 2 9 -8 -4 -13 -1 -13 9
0 9 5 13 10 10 6 -3 10 -1 10 4 0 6 -4 11 -8 11 -4 0 -8 16 -9 35 0 19 3 32 8
29 5 -3 9 0 9 5 0 6 -6 11 -12 11 -9 0 -8 4 2 10 12 8 12 10 1 10 -11 0 -11 3
0 17 10 11 10 14 2 9 -8 -4 -13 -1 -13 9 0 9 5 13 10 10 6 -3 10 -1 10 4 0 6
-4 11 -8 11 -10 0 -9 86 1 96 4 4 7 12 7 18 0 6 -5 4 -11 -4 -8 -12 -10 -10
-8 10 1 14 1 36 0 50 l-1 26 -405 0 c-223 1 -409 4 -412 8 -4 4 -1 11 7 16 10
7 11 10 3 10 -7 0 -13 9 -13 19 0 11 6 22 13 24 9 4 8 6 -2 6 -11 1 -11 4 -1
16 7 8 8 20 4 27 -15 23 -16 61 -2 69 10 7 10 9 1 9 -7 0 -13 6 -13 14 0 8 6
17 13 19 10 4 10 6 0 6 -7 1 -13 6 -13 12 0 5 6 7 13 3 9 -6 9 -5 0 7 -7 9
-12 31 -12 50 1 19 1 46 0 61 l-1 27 -79 -1 -79 -1 3 -26 c2 -14 -4 -34 -13
-44 -9 -10 -12 -18 -7 -17 24 5 27 -1 9 -16 -10 -8 -14 -13 -8 -10 7 3 15 -1
18 -10 4 -11 2 -15 -7 -11 -8 3 -14 -1 -14 -9 0 -7 4 -11 8 -9 4 3 10 -2 13
-11 4 -11 2 -15 -7 -11 -8 3 -14 -1 -14 -9 0 -7 4 -11 8 -9 4 3 9 -2 13 -10 3
-8 -3 -19 -12 -24 -15 -9 -15 -10 3 -11 11 -1 14 -4 8 -7 -10 -3 -10 -10 -2
-25 10 -18 9 -20 -5 -15 -8 3 -18 2 -21 -4 -4 -5 -3 -9 2 -8 4 1 15 1 23 0 13
-1 13 -2 0 -11 -13 -9 -13 -10 0 -10 8 0 2 -9 -15 -20 -16 -11 -25 -20 -18
-20 6 0 15 5 18 10 12 19 26 11 16 -8 -7 -13 -7 -22 0 -29 21 -21 -50 -27 -82
-8 -6 5 -4 12 8 22 10 8 13 12 7 9 -8 -4 -13 7 -16 29 -2 20 0 35 7 35 5 0 3
5 -5 10 -13 8 -12 10 3 10 17 0 17 1 2 16 -21 21 -11 31 12 13 17 -13 17 -12
2 6 -18 22 -31 65 -20 65 4 0 7 9 7 20 0 11 -4 20 -8 20 -4 0 -8 5 -8 11 0 5
6 7 13 3 8 -5 8 -2 -2 9 -16 20 -2 23 19 5 8 -7 5 -1 -8 13 -18 20 -19 28 -9
39 10 10 9 11 -1 6 -10 -6 -11 -1 -7 17 8 30 -4 35 -92 35 l-63 1 0 -30z"/>
<path d="M1415 2809 c-4 -6 -5 -12 -2 -15 2 -3 7 2 10 11 7 17 1 20 -8 4z"/>
<path d="M1413 2635 c0 -8 4 -12 9 -9 4 3 8 9 8 15 0 5 -4 9 -8 9 -5 0 -9 -7
-9 -15z"/>
<path d="M1435 2571 c-3 -5 -2 -12 3 -15 5 -3 9 1 9 9 0 17 -3 19 -12 6z"/>
<path d="M1662 1795 c-9 -11 -13 -17 -8 -13 5 4 16 2 25 -4 9 -7 13 -9 9 -4
-4 5 2 16 13 25 l21 17 -21 0 c-12 0 -29 -9 -39 -21z"/>
<path d="M1786 1812 c-2 -4 -1 -14 3 -21 6 -10 10 -9 14 3 6 16 -8 32 -17 18z"/>
<path d="M2124 1808 c-3 -5 -10 -6 -15 -3 -5 4 -9 1 -9 -4 0 -6 5 -11 11 -11
5 0 8 -4 5 -8 -2 -4 4 -8 15 -8 18 0 18 2 5 12 -9 6 -13 14 -9 18 4 3 17 -4
29 -15 23 -21 24 -21 30 -3 4 10 8 21 10 24 4 9 -67 7 -72 -2z m51 -9 c11 -17
-1 -21 -15 -4 -8 9 -8 15 -2 15 6 0 14 -5 17 -11z"/>
<path d="M2266 1812 c-2 -4 -1 -14 3 -21 6 -10 10 -9 14 3 6 16 -8 32 -17 18z"/>
<path d="M2375 1810 c-4 -6 -11 -8 -16 -5 -5 3 -6 -1 -2 -11 5 -15 7 -15 15 0
5 9 14 13 20 10 7 -4 8 -2 4 4 -9 15 -13 15 -21 2z"/>
<path d="M1980 1801 c0 -9 30 -24 36 -18 2 1 -6 8 -16 15 -11 7 -20 8 -20 3z"/>
<path d="M2030 1797 c0 -5 6 -7 14 -4 8 3 17 1 20 -6 3 -9 5 -8 5 1 1 8 6 10
14 6 6 -4 8 -3 4 2 -11 12 -57 13 -57 1z"/>
<path d="M1662 1756 c7 -8 15 -12 17 -11 5 6 -10 25 -20 25 -5 0 -4 -6 3 -14z"/>
<path d="M1657 1075 c-4 -8 -3 -16 1 -19 4 -3 9 4 9 15 2 23 -3 25 -10 4z"/>
<path d="M1654 796 c1 -8 5 -18 8 -22 4 -3 5 1 4 10 -1 8 -5 18 -8 22 -4 3 -5
-1 -4 -10z"/>
<path d="M1655 340 c3 -5 8 -10 11 -10 2 0 4 5 4 10 0 6 -5 10 -11 10 -5 0 -7
-4 -4 -10z"/>
</g>
</svg>
