<?xml version="1.0" standalone="no"?>
<!DOCTYPE svg PUBLIC "-//W3C//DTD SVG 20010904//EN"
 "http://www.w3.org/TR/2001/REC-SVG-20010904/DTD/svg10.dtd">
<svg version="1.0" xmlns="http://www.w3.org/2000/svg"
 width="1280.000000pt" height="1280.000000pt" viewBox="0 0 1280.000000 1280.000000"
 preserveAspectRatio="xMidYMid meet">
<metadata>
Created by potrace 1.11, written by Peter Selinger 2001-2013
</metadata>
<g transform="translate(0.000000,1280.000000) scale(0.100000,-0.100000)"
fill="#000000" stroke="none">
<path d="M6506 12402 c-2 -1 -26 -3 -55 -3 l-52 -2 1 -41 c0 -22 0 -50 1 -61
0 -11 0 -24 0 -30 0 -5 0 -28 0 -50 0 -22 -1 -58 0 -80 0 -22 -1 -69 -1 -105
-1 -36 -1 -69 0 -75 2 -5 2 -14 1 -19 -1 -6 -2 -38 -1 -73 1 -73 1 -69 0 -153
-1 -36 -1 -69 0 -75 2 -5 1 -14 0 -20 -1 -8 -1 -207 1 -265 0 -8 0 -31 0 -50
-1 -19 -1 -42 0 -50 0 -15 0 -105 -1 -145 0 -25 1 -106 2 -114 0 -3 0 -9 -1
-13 -4 -16 -3 -219 1 -223 2 -2 1 -31 -2 -65 -3 -33 -3 -60 0 -60 4 0 4 -22 0
-50 -3 -27 -3 -54 0 -60 4 -6 4 -30 0 -54 -3 -24 -3 -51 0 -62 4 -10 4 -32 0
-49 -3 -16 -3 -43 0 -60 3 -16 3 -43 0 -60 -4 -16 -3 -44 0 -62 4 -17 4 -36 0
-42 -3 -6 -3 -34 0 -61 4 -28 5 -52 2 -55 -5 -5 -6 -215 0 -220 2 -2 1 -31 -2
-65 -3 -33 -2 -60 3 -60 4 0 6 -4 3 -8 -4 -7 -8 -74 -5 -112 1 -16 0 -96 -2
-145 -1 -16 -1 -37 0 -45 1 -29 0 -165 -2 -228 -1 -34 0 -62 3 -62 3 0 4 -39
2 -87 -3 -119 -4 -216 -2 -228 2 -5 2 -14 1 -19 -1 -6 -2 -38 -1 -73 1 -73 1
-69 0 -153 -1 -36 -1 -69 0 -75 2 -5 2 -14 1 -19 -1 -6 -2 -38 -1 -73 1 -73 1
-69 0 -153 -1 -36 -1 -69 0 -75 2 -5 2 -14 1 -19 -1 -6 -2 -38 -1 -73 1 -73 1
-69 0 -153 -1 -36 -1 -69 0 -75 2 -5 2 -14 1 -19 -1 -6 -2 -38 -1 -73 1 -73 1
-69 0 -153 -1 -36 -1 -69 0 -75 2 -5 2 -14 1 -19 -1 -6 -2 -38 -1 -73 1 -73 1
-69 0 -153 -1 -36 -1 -69 0 -75 2 -5 2 -14 1 -19 -1 -6 -2 -38 -1 -73 1 -73 1
-69 0 -153 -1 -36 -1 -69 0 -75 2 -5 2 -14 1 -19 -1 -6 -2 -38 -1 -73 1 -73 1
-69 0 -153 -1 -36 -1 -69 0 -75 2 -5 1 -14 0 -20 -1 -5 -1 -64 0 -130 1 -159
1 -149 1 -200 0 -25 0 -52 0 -60 0 -8 0 -35 0 -60 0 -25 0 -53 -1 -62 0 -22 1
-104 2 -112 0 -3 0 -9 -1 -13 -4 -16 -3 -219 1 -223 2 -2 1 -31 -2 -65 -3 -33
-3 -60 0 -60 4 0 4 -22 0 -50 -3 -27 -3 -54 0 -60 4 -6 4 -30 0 -54 -3 -24 -3
-51 0 -62 4 -10 4 -32 0 -49 -3 -16 -3 -43 0 -60 3 -16 3 -43 0 -60 -4 -16 -3
-44 0 -62 4 -17 4 -36 0 -42 -3 -6 -3 -34 0 -61 4 -28 5 -52 2 -55 -5 -5 -6
-215 0 -220 2 -2 1 -31 -2 -65 -3 -33 -2 -60 3 -60 4 0 6 -4 3 -8 -4 -7 -8
-74 -5 -112 1 -16 0 -96 -2 -145 -1 -16 -1 -37 0 -45 1 -29 0 -165 -2 -228 -1
-34 0 -62 3 -62 3 0 4 -39 2 -87 -3 -119 -4 -216 -2 -228 2 -5 2 -14 1 -19 -1
-6 -2 -38 -1 -73 1 -73 1 -69 0 -153 -1 -36 -1 -69 0 -75 2 -5 2 -14 1 -19 -1
-6 -2 -38 -1 -73 1 -73 1 -69 0 -153 -1 -36 -1 -69 0 -75 2 -5 2 -14 1 -19 -1
-6 -2 -38 -1 -73 1 -73 1 -69 0 -153 -1 -36 -1 -69 0 -75 2 -5 1 -14 0 -20 -1
-5 -2 -90 -1 -188 l0 -178 -1382 1 c-760 0 -1480 1 -1600 0 l-217 0 2 -1067 3
-1068 2131 0 2132 0 0 4650 c0 2558 1 4658 1 4667 1 17 60 18 1053 20 l1052 3
0 930 1 931 -1065 0 -1065 0 -1 26 c-1 14 -4 33 -7 42 -3 8 -2 18 3 21 5 3 6
15 1 27 -4 12 -5 38 -1 59 4 20 3 44 -2 52 -5 9 -4 18 1 21 5 4 6 18 2 34 -4
15 -5 38 -1 52 4 14 3 35 -1 47 -5 12 -4 25 1 28 5 3 5 18 1 33 -4 15 -5 38
-1 52 4 14 3 35 -1 47 -5 13 -4 25 2 28 5 4 6 11 3 17 -7 11 -7 47 -2 141 2
26 -1 47 -5 47 -4 0 -3 8 2 19 6 10 8 20 6 23 -9 9 -11 73 -4 101 4 15 4 27
-1 27 -5 0 -5 13 0 29 5 18 4 37 -4 52 -10 21 -16 22 -101 20 -49 -1 -97 -2
-105 -2 -67 2 -185 -2 -198 -8 -2 0 1 -9 7 -18 5 -9 5 -26 1 -38 -5 -12 -4
-28 0 -35 5 -8 5 -21 0 -30 -5 -9 -5 -22 0 -30 4 -7 4 -23 0 -35 -5 -14 -4
-27 2 -33 7 -7 6 -16 -1 -30 -7 -13 -7 -23 -2 -27 6 -3 6 -17 1 -35 -5 -17 -5
-30 0 -30 5 0 5 -13 0 -30 -5 -17 -5 -30 0 -30 5 0 5 -13 0 -30 -5 -17 -5 -30
0 -30 5 0 5 -13 0 -30 -5 -19 -5 -30 1 -30 6 0 6 -6 0 -18 -5 -10 -6 -24 -1
-32 5 -8 5 -21 0 -30 -5 -9 -5 -22 0 -30 5 -8 5 -21 0 -30 -5 -9 -5 -22 0 -30
5 -8 5 -21 0 -30 -5 -9 -5 -22 0 -30 5 -8 5 -21 0 -30 -5 -9 -5 -22 -1 -29 5
-7 5 -30 1 -51 -4 -21 -4 -44 1 -51 4 -7 4 -22 -1 -34 -5 -12 -4 -28 0 -35 5
-8 4 -22 -1 -32 -7 -13 -6 -18 3 -18 9 0 9 -3 0 -12 -14 -14 -229 -21 -237 -8
-5 9 -6 26 -6 210 0 172 0 146 1 275 0 58 -2 110 -5 115 -3 6 -3 10 2 10 4 0
7 26 5 57 -1 32 -2 94 -1 138 0 44 0 85 0 90 0 6 -1 47 -2 92 -1 46 -5 80 -10
78 -8 -6 -144 -7 -232 -2 -27 1 -50 1 -51 -1z"/>
</g>
</svg>
